<svg width="42" height="42" viewBox="0 0 42 42" fill="none" xmlns="http://www.w3.org/2000/svg">
<path d="M21 3.5C16.377 3.55896 11.96 5.42163 8.69082 8.69082C5.42163 11.96 3.55896 16.377 3.5 21C3.52161 23.6931 4.16451 26.3449 5.37865 28.7489C6.59278 31.1529 8.34538 33.2442 10.5 34.86V35H10.675C13.6381 37.2706 17.267 38.5011 21 38.5011C24.733 38.5011 28.3619 37.2706 31.325 35H31.5V34.86C33.6546 33.2442 35.4072 31.1529 36.6214 28.7489C37.8355 26.3449 38.4784 23.6931 38.5 21C38.441 16.377 36.5784 11.96 33.3092 8.69082C30.04 5.42163 25.623 3.55896 21 3.5V3.5ZM14.1225 33.1275C14.378 31.9575 15.0258 30.9101 15.9584 30.1589C16.891 29.4077 18.0525 28.9979 19.25 28.9975H22.75C23.9475 28.9979 25.109 29.4077 26.0416 30.1589C26.9742 30.9101 27.622 31.9575 27.8775 33.1275C25.793 34.3539 23.4185 35.0006 21 35.0006C18.5815 35.0006 16.207 34.3539 14.1225 33.1275V33.1275ZM30.8175 30.87C30.1518 29.2792 29.031 27.9205 27.5956 26.9646C26.1603 26.0088 24.4745 25.4984 22.75 25.4975H19.25C17.5255 25.4984 15.8397 26.0088 14.4044 26.9646C12.969 27.9205 11.8482 29.2792 11.1825 30.87C9.87116 29.5802 8.82683 28.0447 8.10917 26.3512C7.39152 24.6576 7.01462 22.8393 7 21C7.04539 17.3011 8.53496 13.7664 11.1507 11.1507C13.7664 8.53496 17.3011 7.04539 21 7C24.6989 7.04539 28.2336 8.53496 30.8493 11.1507C33.465 13.7664 34.9546 17.3011 35 21C34.9854 22.8393 34.6085 24.6576 33.8908 26.3512C33.1732 28.0447 32.1288 29.5802 30.8175 30.87V30.87Z" fill="#333333"/>
<path d="M20.9999 10.4999C20.0748 10.4784 19.1549 10.6447 18.2958 10.9888C17.4368 11.333 16.6565 11.8478 16.0022 12.5022C15.3478 13.1565 14.833 13.9368 14.4888 14.7958C14.1447 15.6549 13.9784 16.5748 13.9999 17.4999C13.9784 18.425 14.1447 19.345 14.4888 20.204C14.833 21.063 15.3478 21.8433 16.0022 22.4976C16.6565 23.152 17.4368 23.6668 18.2958 24.011C19.1549 24.3551 20.0748 24.5215 20.9999 24.4999C21.925 24.5215 22.845 24.3551 23.704 24.011C24.563 23.6668 25.3433 23.152 25.9976 22.4976C26.652 21.8433 27.1668 21.063 27.511 20.204C27.8551 19.345 28.0215 18.425 27.9999 17.4999C28.0215 16.5748 27.8551 15.6549 27.511 14.7958C27.1668 13.9368 26.652 13.1565 25.9976 12.5022C25.3433 11.8478 24.563 11.333 23.704 10.9888C22.845 10.6447 21.925 10.4784 20.9999 10.4999ZM20.9999 20.9999C20.5343 21.0224 20.0692 20.9473 19.6343 20.7794C19.1995 20.6114 18.8046 20.3544 18.475 20.0248C18.1454 19.6952 17.8884 19.3003 17.7204 18.8655C17.5525 18.4306 17.4774 17.9655 17.4999 17.4999C17.4774 17.0343 17.5525 16.5692 17.7204 16.1343C17.8884 15.6995 18.1454 15.3046 18.475 14.975C18.8046 14.6454 19.1995 14.3884 19.6343 14.2204C20.0692 14.0525 20.5343 13.9774 20.9999 13.9999C21.4655 13.9774 21.9306 14.0525 22.3655 14.2204C22.8003 14.3884 23.1952 14.6454 23.5248 14.975C23.8544 15.3046 24.1114 15.6995 24.2794 16.1343C24.4473 16.5692 24.5224 17.0343 24.4999 17.4999C24.5224 17.9655 24.4473 18.4306 24.2794 18.8655C24.1114 19.3003 23.8544 19.6952 23.5248 20.0248C23.1952 20.3544 22.8003 20.6114 22.3655 20.7794C21.9306 20.9473 21.4655 21.0224 20.9999 20.9999Z" fill="#333333"/>
</svg>
