<svg width="32" height="32" viewBox="0 0 32 32" fill="none" xmlns="http://www.w3.org/2000/svg">
<path d="M29.0958 9.90801C28.9732 9.73077 28.8094 9.5859 28.6185 9.48582C28.4277 9.38573 28.2154 9.33341 27.9998 9.33334H9.77717L8.2385 5.64001C8.03676 5.15363 7.69513 4.73812 7.25694 4.44615C6.81874 4.15418 6.30372 3.99891 5.77717 4.00001H2.6665V6.66667H5.77717L12.1025 21.8467C12.2038 22.0895 12.3747 22.297 12.5937 22.4429C12.8127 22.5888 13.07 22.6667 13.3332 22.6667H23.9998C24.5558 22.6667 25.0532 22.3213 25.2492 21.8027L29.2492 11.136C29.3248 10.9342 29.3503 10.717 29.3236 10.5031C29.2969 10.2893 29.2187 10.0851 29.0958 9.90801V9.90801Z" fill="#555555"/>
<path d="M14 28C15.1046 28 16 27.1046 16 26C16 24.8954 15.1046 24 14 24C12.8954 24 12 24.8954 12 26C12 27.1046 12.8954 28 14 28Z" fill="#555555"/>
<path d="M23.3335 28C24.4381 28 25.3335 27.1046 25.3335 26C25.3335 24.8954 24.4381 24 23.3335 24C22.2289 24 21.3335 24.8954 21.3335 26C21.3335 27.1046 22.2289 28 23.3335 28Z" fill="#555555"/>
</svg>
