<svg width="28" height="28" viewBox="0 0 28 28" fill="none" xmlns="http://www.w3.org/2000/svg">
<path d="M12.25 24.5C13.2165 24.5 14 23.7165 14 22.75C14 21.7835 13.2165 21 12.25 21C11.2835 21 10.5 21.7835 10.5 22.75C10.5 23.7165 11.2835 24.5 12.25 24.5Z" fill="#54C648"/>
<path d="M20.4167 24.5C21.3832 24.5 22.1667 23.7165 22.1667 22.75C22.1667 21.7835 21.3832 21 20.4167 21C19.4502 21 18.6667 21.7835 18.6667 22.75C18.6667 23.7165 19.4502 24.5 20.4167 24.5Z" fill="#54C648"/>
<path d="M15.1666 15.1667H17.4999V11.6784H20.9882V9.34507H17.4999V5.86841H15.1666V9.34507H11.6782V11.6784H15.1666V15.1667Z" fill="#54C648"/>
<path d="M11.6666 19.8333H20.9999C21.2349 19.8326 21.4643 19.761 21.6579 19.6278C21.8515 19.4945 22.0003 19.3059 22.0849 19.0867L25.3866 10.5H22.8899L20.1949 17.5H12.4483L7.20992 4.93501C7.03231 4.50924 6.73248 4.14568 6.34832 3.89027C5.96416 3.63485 5.51291 3.49904 5.05159 3.50001H2.33325V5.83334H5.05159L10.5933 19.11C10.6808 19.3231 10.8294 19.5054 11.0204 19.6342C11.2114 19.7629 11.4363 19.8322 11.6666 19.8333Z" fill="#54C648"/>
</svg>
