<svg xmlns="http://www.w3.org/2000/svg"  viewBox="0 0 48 48" width="48px" height="48px"><path fill="#1e4384" d="M17.163,35.679c1.41,1.525,2.801,4.085,3.487,6.045c0.345,0.986,0.723,2.275,1.324,3.269	c0.54,0.894,1.886,1.015,2.548,0.207c0.373-0.456,0.865-1.483,0.98-1.77c1.529-3.792,2.202-5.688,5.993-10.397	c2.198-2.73,4.25-6.208,5.461-9.497c1.211-3.289,1.798-6.891,1.074-10.321c-0.682-3.232-2.546-6.202-5.159-8.222	C28.418,1.551,22,1.125,16.874,3.452C15.494,4.078,14.182,4.897,13.142,6c-1.591,1.689-3.444,4.073-4.092,6.301	c-0.638,2.195-0.856,4.281-0.55,6.972c0.376,3.313,1.771,6.178,3.27,9.156c1.546,3.071,3.049,4.69,5.375,7.222"/><path fill="#febf10" d="M12.334,29.449c0.728,1.488,3.903,5.325,3.903,5.325l10.75-12.866c0,0-2.481,1.29-4.928,0.331	s-4.068-2.977-4.101-6.913L9.89,24.867L12.334,29.449z"/><path fill="#4b7bb2" d="M32.33,4.422c2.033,1.818,4.875,5.742,5.023,6.112l-8.367,9.375c0,0,0.237-2.999-0.324-4.013	s-1.165-2.816-2.763-3.509c-1.598-0.694-4.825-0.694-6.242,0.181l8.717-9.849C28.374,2.719,31.197,3.409,32.33,4.422z"/><path fill="#38b47b" d="M36.956,23.536c1.211-3.289,1.798-6.891,1.074-10.321c-0.185-0.878-0.465-1.734-0.816-2.559	l-0.229-0.04c-2.256,1.919-3.736,4.037-5.649,6.36c-1.02,1.239-1.937,2.718-3.088,3.837c-3.028,2.943-4.938,5.473-7.715,8.655	c-1.273,1.459-2.654,3.285-4.14,5.101l-0.051,0.206c0.257,0.282,0.523,0.572,0.803,0.876l0.018,0.029	c1.409,1.525,2.801,4.085,3.487,6.045c0.345,0.986,0.723,2.275,1.324,3.269c0.54,0.894,1.886,1.015,2.548,0.207	c0.373-0.456,0.865-1.483,0.98-1.77c1.529-3.792,2.202-5.688,5.993-10.397C33.693,30.304,35.745,26.826,36.956,23.536z"/><path fill="#ef4754" d="M11.695,8.179L11.44,7.996c-1.037,1.346-1.969,2.858-2.389,4.306	c-0.638,2.195-0.856,4.281-0.55,6.972c0.22,1.938,0.794,3.722,1.529,5.466l0.231,0.125c0.733-1.163,1.392-1.826,2.724-3.425	c0.46-0.552,2.53-2.9,2.842-3.346c1.036-1.48,1.874-2.615,2.686-3.998C16.259,12.39,13.95,9.51,11.695,8.179z"/><path fill="#d6e5e5" d="M22.905,11.817c-2.129,0.045-4.074,1.136-4.676,2.968c-0.603,1.832-0.031,3.902,1.104,5.461	c0.683,0.939,1.587,1.747,2.675,2.153c2.113,0.788,4.675-0.185,5.913-2.069c1.238-1.884,1.521-3.377,0.386-5.325	c-0.294-0.505-0.761-1.385-1.483-2.029c-0.425-0.379-1.122-0.756-1.678-0.878c-0.652-0.144-1.386-0.338-2.24-0.301"/><path fill="#010101" d="M23.341,46.241c-0.05,0-0.101-0.002-0.151-0.006c-0.687-0.049-1.301-0.416-1.644-0.983	c-0.523-0.866-0.874-1.905-1.183-2.822l-0.185-0.541c-0.734-2.096-2.126-4.51-3.383-5.869c-0.02-0.021-0.037-0.044-0.052-0.067	l-0.056-0.06c-2.292-2.496-3.807-4.145-5.364-7.238c-1.369-2.719-2.92-5.802-3.321-9.324c-0.298-2.627-0.129-4.771,0.567-7.168	c0.745-2.562,2.956-5.176,4.208-6.505c0.979-1.039,2.288-1.934,3.889-2.66c5.441-2.47,12.076-1.827,16.51,1.602	c2.693,2.08,4.641,5.184,5.343,8.514c0.68,3.214,0.312,6.779-1.095,10.597c-1.188,3.229-3.208,6.741-5.54,9.639	c-3.573,4.437-4.334,6.329-5.715,9.764l-0.204,0.507c-0.106,0.263-0.619,1.363-1.058,1.898	C24.532,45.977,23.955,46.241,23.341,46.241z M17.564,35.378c1.55,1.693,2.929,4.385,3.558,6.181l0.188,0.552	c0.293,0.868,0.625,1.853,1.091,2.624c0.175,0.29,0.496,0.478,0.858,0.504c0.354,0.025,0.669-0.104,0.875-0.354	c0.311-0.381,0.78-1.334,0.903-1.64l0.204-0.506c1.417-3.523,2.197-5.465,5.863-10.018c2.268-2.816,4.229-6.227,5.382-9.357	c1.339-3.638,1.693-7.017,1.054-10.044c-0.654-3.102-2.468-5.992-4.976-7.93c-4.151-3.208-10.374-3.803-15.484-1.482	c-1.482,0.673-2.686,1.492-3.574,2.436c-1.19,1.264-3.289,3.737-3.976,6.099c-0.657,2.262-0.817,4.288-0.534,6.775	c0.381,3.346,1.889,6.344,3.22,8.988c1.495,2.969,2.973,4.577,5.209,7.011l0.088,0.097C17.533,35.333,17.55,35.354,17.564,35.378z"/><path fill="#010101" d="M23.583,23.178c-0.595,0-1.188-0.1-1.75-0.31c-1.086-0.404-2.091-1.209-2.905-2.327	c-1.346-1.849-1.784-4.06-1.174-5.912c0.631-1.921,2.582-3.207,4.993-3.307c0.043-0.015,0.089-0.022,0.136-0.025	c0.84-0.03,1.535,0.125,2.157,0.265l0.212,0.048c0.618,0.137,1.4,0.545,1.903,0.992c0.71,0.635,1.18,1.451,1.49,1.991l0.092,0.16	c1.15,1.975,1.034,3.67-0.399,5.852C27.272,22.227,25.417,23.178,23.583,23.178z M23.06,12.293	c-0.046,0.015-0.094,0.023-0.145,0.024c-2.017,0.042-3.709,1.097-4.212,2.624c-0.502,1.525-0.106,3.445,1.033,5.012	c0.698,0.958,1.544,1.642,2.446,1.978c1.84,0.688,4.179-0.137,5.319-1.875c1.24-1.886,1.337-3.142,0.372-4.799l-0.096-0.166	c-0.278-0.484-0.699-1.217-1.288-1.742c-0.376-0.334-1.001-0.662-1.454-0.763l-0.216-0.049C24.27,12.413,23.744,12.308,23.06,12.293	z"/><path fill="#010101" d="M16.395,35.068c-0.111,0-0.224-0.037-0.316-0.113c-0.214-0.175-0.245-0.489-0.07-0.703	c0.562-0.688,1.11-1.378,1.644-2.049c0.879-1.106,1.709-2.151,2.506-3.064c0.808-0.925,1.542-1.795,2.251-2.636	c1.712-2.029,3.329-3.946,5.492-6.049c0.708-0.688,1.343-1.544,1.957-2.371c0.361-0.488,0.721-0.972,1.094-1.425	c0.426-0.517,0.83-1.024,1.227-1.521c1.387-1.738,2.696-3.38,4.484-4.901c0.211-0.178,0.525-0.154,0.705,0.057	c0.179,0.211,0.153,0.526-0.057,0.705c-1.715,1.459-2.995,3.063-4.351,4.764c-0.399,0.501-0.808,1.012-1.237,1.533	c-0.362,0.44-0.711,0.911-1.062,1.385c-0.638,0.859-1.297,1.749-2.062,2.492c-2.128,2.068-3.729,3.967-5.425,5.977	c-0.713,0.845-1.45,1.72-2.262,2.649c-0.782,0.896-1.605,1.932-2.477,3.028c-0.536,0.674-1.087,1.368-1.653,2.06	C16.683,35.006,16.539,35.068,16.395,35.068z"/><path fill="#010101" d="M10.26,25.365c-0.092,0-0.184-0.024-0.267-0.077c-0.233-0.146-0.304-0.456-0.156-0.689	c0.558-0.886,1.066-1.481,1.836-2.383c0.271-0.318,0.576-0.675,0.928-1.097c0.152-0.183,0.479-0.561,0.861-1.002	c0.701-0.809,1.76-2.031,1.954-2.31l0.552-0.783c0.694-0.983,1.305-1.849,1.889-2.806c-0.874-0.704-1.754-1.558-2.608-2.387	c-1.264-1.225-2.569-2.492-3.807-3.223c-0.238-0.141-0.317-0.447-0.177-0.685c0.142-0.238,0.449-0.316,0.685-0.177	c1.341,0.792,2.689,2.101,3.995,3.366c0.948,0.92,1.929,1.872,2.869,2.584c0.202,0.153,0.258,0.433,0.13,0.651	c-0.674,1.148-1.362,2.123-2.159,3.252l-0.549,0.779c-0.207,0.297-1.001,1.218-2.018,2.392c-0.377,0.435-0.699,0.808-0.85,0.987	c-0.354,0.425-0.661,0.785-0.935,1.105c-0.741,0.868-1.231,1.442-1.751,2.267C10.588,25.282,10.426,25.365,10.26,25.365z"/><path fill="#010101" d="M18.824,14.188c-0.12,0-0.24-0.043-0.336-0.13c-0.204-0.185-0.22-0.501-0.034-0.706	c0.714-0.788,1.432-1.607,2.106-2.379c0.724-0.827,1.399-1.599,1.973-2.219c0.835-0.904,1.485-1.811,2.115-2.687	c0.886-1.232,1.722-2.396,3.001-3.516c0.207-0.181,0.523-0.162,0.705,0.047c0.182,0.208,0.161,0.523-0.047,0.705	c-1.192,1.044-1.996,2.163-2.848,3.348c-0.646,0.9-1.315,1.831-2.192,2.78c-0.567,0.615-1.237,1.38-1.954,2.2	c-0.68,0.775-1.4,1.599-2.119,2.392C19.096,14.133,18.96,14.188,18.824,14.188z"/></svg>