<svg width="32" height="36" viewBox="0 0 32 36" fill="none" xmlns="http://www.w3.org/2000/svg">
<path d="M3.75 35.4999H28.25C29.1783 35.4999 30.0685 35.1312 30.7249 34.4748C31.3813 33.8184 31.75 32.9282 31.75 31.9999V16.2499C31.7513 16.0196 31.7072 15.7913 31.6201 15.5781C31.533 15.3649 31.4047 15.1709 31.2425 15.0074L17.2425 1.00742C16.9146 0.681483 16.4711 0.498535 16.0087 0.498535C15.5464 0.498535 15.1029 0.681483 14.775 1.00742L0.775 15.0074C0.609646 15.1695 0.478098 15.3628 0.387979 15.5761C0.29786 15.7893 0.250961 16.0184 0.25 16.2499V31.9999C0.25 32.9282 0.618749 33.8184 1.27513 34.4748C1.9315 35.1312 2.82174 35.4999 3.75 35.4999ZM12.5 31.9999V23.2499H19.5V31.9999H12.5ZM3.75 16.9674L16 4.71742L28.25 16.9674V31.9999H23V23.2499C23 22.3217 22.6313 21.4314 21.9749 20.775C21.3185 20.1187 20.4283 19.7499 19.5 19.7499H12.5C11.5717 19.7499 10.6815 20.1187 10.0251 20.775C9.36875 21.4314 9 22.3217 9 23.2499V31.9999H3.75V16.9674Z" fill="#222222"/>
</svg>
