<svg width="42" height="42" viewBox="0 0 42 42" fill="none" xmlns="http://www.w3.org/2000/svg">
<path d="M34.7812 5.25H7.21875C5.16775 5.25 3.5 6.81975 3.5 8.75V33.25C3.5 35.1803 5.16775 36.75 7.21875 36.75H34.7812C36.8323 36.75 38.5 35.1803 38.5 33.25V8.75C38.5 6.81975 36.8323 5.25 34.7812 5.25ZM34.7812 33.25H7.21875C7.119 33.25 7.05075 33.222 7.021 33.222C7.00875 33.222 7.00175 33.2255 7 33.236L6.979 8.8305C6.99125 8.813 7.07 8.75 7.21875 8.75H34.7812C34.9195 8.75175 34.9947 8.799 35 8.764L35.021 33.1695C35.0087 33.187 34.93 33.25 34.7812 33.25Z" fill="#333333"/>
<path d="M10.5 12.25H21V22.75H10.5V12.25ZM22.75 26.25H10.5V29.75H31.5V26.25H24.5H22.75ZM24.5 19.25H31.5V22.75H24.5V19.25ZM24.5 12.25H31.5V15.75H24.5V12.25Z" fill="#333333"/>
</svg>
