<svg width="32" height="36" viewBox="0 0 32 36" fill="none" xmlns="http://www.w3.org/2000/svg">
<path d="M28.25 20.7755V14.5C28.25 8.87025 24.4263 4.12775 19.2463 2.7015C18.7335 1.41 17.4805 0.5 16 0.5C14.5195 0.5 13.2665 1.41 12.7538 2.7015C7.57375 4.1295 3.75 8.87025 3.75 14.5V20.7755L0.762752 23.7628C0.599927 23.925 0.470799 24.1178 0.382799 24.3302C0.2948 24.5425 0.249668 24.7701 0.250002 25V28.5C0.250002 28.9641 0.434376 29.4093 0.762565 29.7374C1.09075 30.0656 1.53587 30.25 2 30.25H30C30.4641 30.25 30.9093 30.0656 31.2374 29.7374C31.5656 29.4093 31.75 28.9641 31.75 28.5V25C31.7503 24.7701 31.7052 24.5425 31.6172 24.3302C31.5292 24.1178 31.4001 23.925 31.2373 23.7628L28.25 20.7755ZM28.25 26.75H3.75V25.7245L6.73725 22.7372C6.90008 22.575 7.0292 22.3822 7.1172 22.1698C7.2052 21.9575 7.25034 21.7299 7.25 21.5V14.5C7.25 9.67525 11.1753 5.75 16 5.75C20.8248 5.75 24.75 9.67525 24.75 14.5V21.5C24.75 21.9655 24.9338 22.41 25.2628 22.7372L28.25 25.7245V26.75ZM16 35.5C17.0838 35.5014 18.1411 35.165 19.0249 34.5378C19.9087 33.9105 20.5751 33.0235 20.9315 32H11.0685C11.4249 33.0235 12.0913 33.9105 12.9751 34.5378C13.859 35.165 14.9162 35.5014 16 35.5Z" fill="#333333"/>
</svg>
