<svg width="40" height="40" viewBox="0 0 40 40" fill="none" xmlns="http://www.w3.org/2000/svg">
<path d="M19.5116 3.82159C19.357 3.66659 19.1734 3.54366 18.9711 3.45985C18.7689 3.37605 18.5521 3.33303 18.3333 3.33325H9.99992C9.78103 3.33303 9.56425 3.37605 9.36203 3.45985C9.15982 3.54366 8.97615 3.66659 8.82159 3.82159L3.82159 8.82159C3.66652 8.9761 3.54354 9.15975 3.45973 9.36198C3.37592 9.56421 3.33294 9.78101 3.33325 9.99992V18.3333C3.33325 18.7766 3.50825 19.1999 3.82159 19.5116L20.4883 36.1783C20.6427 36.3336 20.8263 36.4568 21.0285 36.5409C21.2307 36.625 21.4476 36.6683 21.6666 36.6683C21.8856 36.6683 22.1025 36.625 22.3047 36.5409C22.5069 36.4568 22.6905 36.3336 22.8449 36.1783L36.1783 22.8449C36.3332 22.6903 36.4561 22.5066 36.5399 22.3044C36.6238 22.1022 36.6669 21.8855 36.6669 21.6666C36.6669 21.4477 36.6238 21.231 36.5399 21.0288C36.4561 20.8266 36.3332 20.6429 36.1783 20.4883L19.5116 3.82159V3.82159ZM21.6666 32.6433L6.66659 17.6433V10.6899L10.6899 6.66659H17.6433L32.6433 21.6666L21.6666 32.6433Z" fill="#333333"/>
<path d="M13.9218 16.6668C15.4378 16.6668 16.6668 15.4378 16.6668 13.9218C16.6668 12.4057 15.4378 11.1768 13.9218 11.1768C12.4057 11.1768 11.1768 12.4057 11.1768 13.9218C11.1768 15.4378 12.4057 16.6668 13.9218 16.6668Z" fill="#333333"/>
</svg>
