<svg width="20" height="19" viewBox="0 0 20 19" fill="none" xmlns="http://www.w3.org/2000/svg">
<path d="M20 3C20 1.346 18.654 0 17 0H3C1.346 0 0 1.346 0 3V5.831C0 6.884 0.382 7.841 1 8.577V17C1 18.103 1.897 19 3 19H17C18.103 19 19 18.103 19 17V8.576C19.618 7.841 20 6.884 20 5.83V3ZM18 3V5.831C18 6.971 17.151 7.943 16.109 7.998L16 8C14.897 8 14 7.103 14 6V2H17C17.552 2 18 2.449 18 3ZM8 2H12V6C12 7.103 11.103 8 10 8C8.897 8 8 7.103 8 6V2ZM2 3C2 2.449 2.448 2 3 2H6V6C6 7.103 5.103 8 4 8L3.891 7.997C2.849 7.943 2 6.971 2 5.831V3ZM8 17V14H12V17H8ZM14 17V14C14 12.897 13.103 12 12 12H8C6.897 12 6 12.897 6 14V17H3V9.869C3.254 9.936 3.517 9.98 3.787 9.994C4.38989 10.0267 4.99233 9.92212 5.54891 9.6881C6.10548 9.45407 6.60165 9.09672 7 8.643C7.733 9.475 8.807 10 10 10C11.193 10 12.267 9.475 13 8.643C13.3983 9.09672 13.8945 9.45407 14.4511 9.6881C15.0077 9.92212 15.6101 10.0267 16.213 9.994C16.484 9.98 16.746 9.936 17 9.869V17H14Z" fill="#444444"/>
</svg>
