<svg width="20" height="15" viewBox="0 0 20 15" fill="none" xmlns="http://www.w3.org/2000/svg">
<path d="M17 4.00008H15V7.00008H12V9.00008H15V12.0001H17V9.00008H20V7.00008H17V4.00008ZM2 4.00008C1.98768 4.52874 2.08273 5.0544 2.27939 5.54527C2.47605 6.03614 2.77024 6.48202 3.14415 6.85593C3.51807 7.22985 3.96395 7.52403 4.45482 7.72069C4.94569 7.91735 5.47134 8.0124 6 8.00008C6.52866 8.0124 7.05431 7.91735 7.54518 7.72069C8.03605 7.52403 8.48193 7.22985 8.85585 6.85593C9.22976 6.48202 9.52395 6.03614 9.72061 5.54527C9.91727 5.0544 10.0123 4.52874 10 4.00008C10.0123 3.47143 9.91727 2.94577 9.72061 2.4549C9.52395 1.96403 9.22976 1.51815 8.85585 1.14424C8.48193 0.770319 8.03605 0.476134 7.54518 0.279475C7.05431 0.0828155 6.52866 -0.0122312 6 8.40162e-05C5.47134 -0.0122312 4.94569 0.0828155 4.45482 0.279475C3.96395 0.476134 3.51807 0.770319 3.14415 1.14424C2.77024 1.51815 2.47605 1.96403 2.27939 2.4549C2.08273 2.94577 1.98768 3.47143 2 4.00008ZM8 4.00008C8.01286 4.26613 7.96993 4.53193 7.87398 4.78041C7.77802 5.02888 7.63115 5.25454 7.4428 5.44289C7.25446 5.63123 7.0288 5.7781 6.78032 5.87406C6.53185 5.97002 6.26605 6.01295 6 6.00008C5.73395 6.01295 5.46815 5.97002 5.21968 5.87406C4.9712 5.7781 4.74554 5.63123 4.5572 5.44289C4.36885 5.25454 4.22198 5.02888 4.12602 4.78041C4.03007 4.53193 3.98714 4.26613 4 4.00008C3.98714 3.73403 4.03007 3.46824 4.12602 3.21976C4.22198 2.97128 4.36885 2.74563 4.5572 2.55728C4.74554 2.36894 4.9712 2.22207 5.21968 2.12611C5.46815 2.03015 5.73395 1.98722 6 2.00008C6.26605 1.98722 6.53185 2.03015 6.78032 2.12611C7.0288 2.22207 7.25446 2.36894 7.4428 2.55728C7.63115 2.74563 7.77802 2.97128 7.87398 3.21976C7.96993 3.46824 8.01286 3.73403 8 4.00008ZM2 14.0001C2 13.2044 2.31607 12.4414 2.87868 11.8788C3.44129 11.3162 4.20435 11.0001 5 11.0001H7C7.79565 11.0001 8.55871 11.3162 9.12132 11.8788C9.68393 12.4414 10 13.2044 10 14.0001V15.0001H12V14.0001C12 13.3435 11.8707 12.6933 11.6194 12.0867C11.3681 11.48 10.9998 10.9288 10.5355 10.4646C10.0712 10.0003 9.52004 9.63196 8.91342 9.38069C8.30679 9.12941 7.65661 9.00008 7 9.00008H5C3.67392 9.00008 2.40215 9.52687 1.46447 10.4646C0.526784 11.4022 0 12.674 0 14.0001V15.0001H2V14.0001Z" fill="#444444"/>
</svg>
